<mxfile host="app.diagrams.net" modified="2023-07-01T16:09:57.140Z" agent="Mozilla/5.0 (X11; Linux x86_64) AppleWebKit/537.36 (KHTML, like Gecko) Chrome/114.0.0.0 Safari/537.36" version="21.5.2" etag="OdiZ4JGN9e6aJhqtlxIy" type="github">
  <diagram name="Page-1" id="mZshNSeGahPHOL1eRXwI">
    <mxGraphModel>
      <root>
        <mxCell id="0" />
        <mxCell id="1" parent="0" />
      </root>
    </mxGraphModel>
  </diagram>
</mxfile>
